{"title":"Batman v Superman Dawn of Justice 2016 720p TELECiNE x264-COX","uid":14474273,"size":2605376398,"categoryP":"video","categoryS":"movies","magnet":"?xt=urn:btih:d9cc1a0737a7f74b6900e856c6cc1ffebec63b60&amp;dn=Batman+v+Superman+Dawn+of+Justice+2016+720p+TELECiNE+x264-COX&amp;tr=udp%3A%2F%2Ftracker.leechers-paradise.org%3A6969&amp;tr=udp%3A%2F%2Fzer0day.ch%3A1337&amp;tr=udp%3A%2F%2Fopen.demonii.com%3A1337&amp;tr=udp%3A%2F%2Ftracker.coppersurfer.tk%3A6969&amp;tr=udp%3A%2F%2Fexodus.desync.com%3A6969","seeders":2,"leechers":4,"uploader":"makintos13","files":2,"time":1461923675,"description":"screens:\r\n \nhttps://imgmak.com/T5F\r\n \nhttps://imgmak.com/T5i\r\n \nhttps://imgmak.com/T5j\r\n \nhttps://imgmak.com/T5w\r\n\r\nFormat : MPEG-4\r\nFormat profile : Base Media\r\nCodec ID : isom (isom/avc1)\r\nFile size : 2.43 GiB\r\nDuration : 2h 31mn\r\nOverall bit rate : 2 289 Kbps\r\nEncoded date : UTC 2016-04-27 09:14:40\r\nTagged date : UTC 2016-04-27 09:14:40\r\n\r\nVideo\r\nID : 1\r\nFormat : AVC\r\nFormat/Info : Advanced Video Codec\r\nFormat profile :   \r\nFormat settings, CABAC : Yes\r\nFormat settings, ReFrames : 3 frames\r\nCodec ID : avc1\r\nCodec ID/Info : Advanced Video Coding\r\nDuration : 2h 31mn\r\nBit rate : 2 163 Kbps\r\nMaximum bit rate : 6 191 Kbps\r\nWidth : 1 280 pixels\r\nHeight : 528 pixels\r\nDisplay aspect ratio : 2.40:1\r\nFrame rate mode : Constant\r\nFrame rate : 29.970 (30000/1001) fps\r\nColor space : YUV\r\nChroma subsampling : 4:2:0\r\nBit depth : 8 bits\r\nScan type : Progressive\r\nBits/(Pixel*Frame) : 0.107\r\nStream size : 2.29 GiB (94%)\r\nWriting library : x264 core 68 r1179M 96e2229\r\nEncoded date : UTC 2016-04-27 09:14:40\r\nTagged date : UTC 2016-04-27 09:15:38\r\n\r\nAudio\r\nID : 2\r\nFormat : MPEG Audio\r\nFormat version : Version 1\r\nFormat profile : Layer 3\r\nCodec ID : 6B\r\nDuration : 2h 31mn\r\nBit rate mode : Constant\r\nBit rate : 128 Kbps\r\nMaximum bit rate : 132 Kbps\r\nChannel(s) : 2 channels\r\nSampling rate : 48.0 KHz\r\nCompression mode : Lossy\r\nStream size : 139 MiB (6%)\r\nWriting library : LAME3.97\r\nEncoding settings : -m s -V 4 -q 2 -lowpass 17 -b 128\r\nEncoded date : UTC 2016-04-27 09:15:35\r\nTagged date : UTC 2016-04-27 09:15:38","torrent":{"xt":"urn:btih:d9cc1a0737a7f74b6900e856c6cc1ffebec63b60","amp;dn":"Batman+v+Superman+Dawn+of+Justice+2016+720p+TELECiNE+x264-COX","amp;tr":["udp%3A%2F%2Ftracker.leechers-paradise.org%3A6969","udp%3A%2F%2Fzer0day.ch%3A1337","udp%3A%2F%2Fopen.demonii.com%3A1337","udp%3A%2F%2Ftracker.coppersurfer.tk%3A6969","udp%3A%2F%2Fexodus.desync.com%3A6969"],"infoHash":"d9cc1a0737a7f74b6900e856c6cc1ffebec63b60","infoHashBuffer":{"type":"Buffer","data":[217,204,26,7,55,167,247,75,105,0,232,86,198,204,31,254,190,198,59,96]},"announce":[],"urlList":[]}}